<?xml version="1.0" encoding="UTF-8" standalone="no"?><!DOCTYPE svg PUBLIC "-//W3C//DTD SVG 1.1//EN" "http://www.w3.org/Graphics/SVG/1.1/DTD/svg11.dtd"><svg viewBox="0 0 512 512" version="1.1" xmlns="http://www.w3.org/2000/svg" xmlns:xlink="http://www.w3.org/1999/xlink" xml:space="preserve">
	<path d="M511.998,256c0,140.437 -115.562,256 -256,256c-140.437,0 -256,-115.563 -256,-256c0,-140.437 115.563,-256 256,-256c140.438,-0 256,115.563 256,256Zm-48.5,-0c0,-113.831 -93.668,-207.5 -207.5,-207.5c-113.831,0 -207.5,93.669 -207.5,207.5c0,113.831 93.669,207.5 207.5,207.5c113.832,-0 207.5,-93.669 207.5,-207.5Zm-207.5,83.529c128.018,0 128,19.393 128,-19.529c-80.374,-29.754 -165.639,-30.164 -256,0c0,38.922 -0.017,19.529 128,19.529Zm-96,-76.196c21.317,-0 38.858,-17.541 38.858,-38.857c-0,-21.317 -17.541,-38.858 -38.858,-38.858c-21.316,0 -38.857,17.541 -38.857,38.858c0,21.316 17.541,38.857 38.857,38.857Zm230.858,-38.857c-0,21.316 -17.541,38.857 -38.858,38.857c-21.316,-0 -38.857,-17.541 -38.857,-38.857c0,-21.317 17.541,-38.858 38.857,-38.858c21.317,0 38.858,17.541 38.858,38.858Z"/>
</svg>