<?xml version="1.0" encoding="UTF-8" standalone="no"?><!DOCTYPE svg PUBLIC "-//W3C//DTD SVG 1.1//EN" "http://www.w3.org/Graphics/SVG/1.1/DTD/svg11.dtd"><svg viewBox="0 0 154 108" version="1.1" xmlns="http://www.w3.org/2000/svg" xmlns:xlink="http://www.w3.org/1999/xlink" xml:space="preserve">
	<path d="M32.4,0l-7.012,18.7l-0,74.789l25.699,-0l-0,14.031l14.031,-0l14.016,-14.031l21.031,-0l28.047,-28.037l0,-65.452l-95.812,0Zm9.342,9.344l77.124,-0l0,51.423l-16.363,16.365l-25.703,-0l-14.013,14.012l0,-14.012l-21.045,-0l0,-67.788Z"/><path d="M50.897,58.198l13.655,-0l12.248,-7.954l3.504,7.954l17.276,-12.139l-0,12.139l11.8,-4.438" style="fill:none;stroke:currentColor;stroke-width:6px;"/><path d="M50.897,34.229l14.733,-11.697l7.212,11.697l12.172,-11.697l6.207,11.697l15.483,-11.697" style="fill:none;stroke:currentColor;stroke-width:6px;"/>
</svg>